<svg xmlns="http://www.w3.org/2000/svg" width="39" height="21.116" viewBox="0 0 39 21.116">
  <g id="Banners" transform="translate(-0.26 -4.774)">
    <path id="Path_35041" data-name="Path 35041" d="M32.443,30.286a2.68,2.68,0,0,0,2.68-2.68V21.78a2.68,2.68,0,0,0-2.68-2.68H13.8a2.68,2.68,0,0,0-2.68,2.68V27.6a2.68,2.68,0,0,0,2.68,2.68h18.64Z" transform="translate(-3.175 -4.396)" fill="#b2b3c5"/>
    <path id="Path_35065" data-name="Path 35065" d="M14.443,30.286a2.68,2.68,0,0,0,2.68-2.68V21.78a2.68,2.68,0,0,0-2.68-2.68H13.8a2.68,2.68,0,0,0-2.68,2.68V27.6a2.68,2.68,0,0,0,2.68,2.68Z" transform="translate(22.136 -4.396)" fill="#b2b3c5" opacity="0.4"/>
    <line id="Line_1182" data-name="Line 1182" y2="3.926" transform="translate(20.598 5.774)" fill="none" stroke="#b2b3c5" stroke-linecap="round" stroke-linejoin="round" stroke-width="2"/>
    <line id="Line_1183" data-name="Line 1183" x1="2.007" y2="3.375" transform="translate(29.618 7.56)" fill="none" stroke="#b2b3c5" stroke-linecap="round" stroke-linejoin="round" stroke-width="2"/>
    <line id="Line_1186" data-name="Line 1186" x2="2.007" y2="3.375" transform="translate(9.571 7.56)" fill="none" stroke="#b2b3c5" stroke-linecap="round" stroke-linejoin="round" stroke-width="2"/>
    <path id="Path_35066" data-name="Path 35066" d="M14.443,30.286a2.68,2.68,0,0,0,2.68-2.68V21.78a2.68,2.68,0,0,0-2.68-2.68H13.8a2.68,2.68,0,0,0-2.68,2.68V27.6a2.68,2.68,0,0,0,2.68,2.68Z" transform="translate(-10.863 -4.396)" fill="#b2b3c5" opacity="0.4"/>
  </g>
</svg>
