<svg xmlns="http://www.w3.org/2000/svg" width="24" height="24" viewBox="0 0 24 24">
  <path id="header-solid" d="M0,33.714A1.712,1.712,0,0,1,1.714,32H6.857a1.714,1.714,0,1,1,0,3.429H6v6H18v-6h-.857a1.714,1.714,0,1,1,0-3.429h5.143a1.714,1.714,0,1,1,0,3.429h-.857V52.571h.857a1.714,1.714,0,1,1,0,3.429H17.143a1.714,1.714,0,1,1,0-3.429H18V44.857H6v7.714h.857a1.714,1.714,0,1,1,0,3.429H1.714a1.714,1.714,0,1,1,0-3.429h.857V35.429H1.714A1.712,1.712,0,0,1,0,33.714Z" transform="translate(0 -32)" fill="#b2b3c5"/>
</svg>
