<svg xmlns="http://www.w3.org/2000/svg" width="114.489" height="55.509" viewBox="0 0 114.489 55.509">
  <path id="row2" d="M66.978,55.511a8,8,0,0,1-8-8V37.491a8,8,0,0,1,8-8H77a8,8,0,0,1,8,8v10.02a8,8,0,0,1-8,8Zm-29.489,0a8,8,0,0,1-8-8V37.491a8,8,0,0,1,8-8h10.02a8,8,0,0,1,8,8v10.02a8,8,0,0,1-8,8ZM8,55.511a8,8,0,0,1-8-8V37.491a8,8,0,0,1,8-8H18.02a8,8,0,0,1,8,8v10.02a8,8,0,0,1-8,8Zm-29.49,0a8,8,0,0,1-8-8V37.491a8,8,0,0,1,8-8h10.02a8,8,0,0,1,8,8v10.02a8,8,0,0,1-8,8ZM66.978,26.022a8,8,0,0,1-8-8V8a8,8,0,0,1,8-8H77a8,8,0,0,1,8,8v10.02a8,8,0,0,1-8,8Zm-29.489,0a8,8,0,0,1-8-8V8a8,8,0,0,1,8-8h10.02a8,8,0,0,1,8,8v10.02a8,8,0,0,1-8,8ZM8,26.022a8,8,0,0,1-8-8V8A8,8,0,0,1,8,0H18.02a8,8,0,0,1,8,8v10.02a8,8,0,0,1-8,8Zm-29.49,0a8,8,0,0,1-8-8V8a8,8,0,0,1,8-8h10.02a8,8,0,0,1,8,8v10.02a8,8,0,0,1-8,8Z" transform="translate(29.49 -0.002)" fill="#b2b3c5" opacity="0.5"/>
</svg>
