<svg xmlns="http://www.w3.org/2000/svg" width="28.903" height="27" viewBox="0 0 28.903 27">
  <g id="shape" transform="translate(-117.048 -224.5)">
    <path id="Union_24" data-name="Union 24" d="M-3629.778,3575.778A10.928,10.928,0,0,1-3633,3568a11,11,0,0,1,9.687-10.923v11.837a4.865,4.865,0,0,0,4.882,4.953h5.74A10.955,10.955,0,0,1-3622,3579,10.928,10.928,0,0,1-3629.778,3575.778Zm13-3.778a4.214,4.214,0,0,1-4.225-4.285v-11.429a4.214,4.214,0,0,1,4.225-4.285h8.451a4.214,4.214,0,0,1,4.225,4.285v11.429a4.214,4.214,0,0,1-4.225,4.285Z" transform="translate(3750.048 -3327.5)" fill="#b2b3c5"/>
  </g>
</svg>
