<svg xmlns="http://www.w3.org/2000/svg" width="22.441" height="28" viewBox="0 0 22.441 28">
  <g id="best" transform="translate(-3.999 -2)">
    <path id="Subtraction_3" data-name="Subtraction 3" d="M10.159,28a11.1,11.1,0,0,1-7.212-3.679A11.582,11.582,0,0,1,0,16.578a11.776,11.776,0,0,1,.373-2.943l.452-1.742a12.729,12.729,0,0,0,2.292,1.5,3.293,3.293,0,0,0,1.256.44.342.342,0,0,0,.261-.089c.188-2.193.387-4.035.591-5.474A9.392,9.392,0,0,1,7.887,2.613,10.585,10.585,0,0,1,13.854,0L13.5,1.319A12.751,12.751,0,0,0,13.125,7.6c.317,1.276,1.124,2.418,1.839,2.6a2.537,2.537,0,0,0,.63.085c1.276,0,2.054-1.205,2.313-3.581l.836,1.141q.226.308.446.6c1.817,2.457,3.252,4.4,3.252,8.128a11.522,11.522,0,0,1-6.622,10.465,3.945,3.945,0,0,0,.8-3.465,16.919,16.919,0,0,0-4.755-6.725c-3.123,1.611-4.2,5.724-3.444,8.77A3.919,3.919,0,0,0,10.16,28Z" transform="translate(3.999 2)" fill="#b2b3c5"/>
  </g>
</svg>
