<svg xmlns="http://www.w3.org/2000/svg" width="20" height="16" viewBox="0 0 20 16">
  <path id="customers" d="M3,4A4,4,0,1,1,7,8,4,4,0,0,1,3,4ZM0,15.072A5.571,5.571,0,0,1,5.572,9.5H8.428A5.571,5.571,0,0,1,14,15.072a.928.928,0,0,1-.928.928H.928A.928.928,0,0,1,0,15.072ZM19.041,16H14.731A2,2,0,0,0,15,15v-.25a6.235,6.235,0,0,0-2.181-4.744c.075,0,.147-.006.222-.006h1.919A5.04,5.04,0,0,1,20,15.041.96.96,0,0,1,19.041,16ZM13.5,8a3.493,3.493,0,0,1-2.478-1.028,5,5,0,0,0,.406-5.294A3.5,3.5,0,1,1,13.5,8Z" fill="#b2b3c5"/>
</svg>
