<svg xmlns="http://www.w3.org/2000/svg" width="20" height="15.564" viewBox="0 0 20 15.564">
  <path id="domain" d="M36.423,29.014a4.785,4.785,0,0,0-6.165-7.277l-.053.036a1.058,1.058,0,1,0,1.231,1.721l.053-.036a2.667,2.667,0,0,1,3.435,4.057l-3.713,3.72A2.667,2.667,0,0,1,27.153,27.8l.036-.053a1.058,1.058,0,1,0-1.721-1.231l-.036.053a4.783,4.783,0,0,0,7.274,6.162Zm-17.2-.774a4.785,4.785,0,0,0,6.165,7.277l.053-.036a1.058,1.058,0,1,0-1.231-1.721l-.053.036a2.668,2.668,0,0,1-3.435-4.061l3.713-3.716A2.668,2.668,0,0,1,28.5,29.458l-.036.053a1.058,1.058,0,1,0,1.721,1.231l.036-.053a4.784,4.784,0,0,0-7.274-6.165Z" transform="translate(-17.825 -20.845)" fill="#b2b3c5"/>
</svg>
