<svg xmlns="http://www.w3.org/2000/svg" width="20" height="22.001" viewBox="0 0 20 22.001">
  <g id="home" transform="translate(39.17 3.001)">
    <g id="Path_16995" data-name="Path 16995">
      <path id="Path_16996" data-name="Path 16996" d="M-19.17,5V16a3.009,3.009,0,0,1-3,3h-3a1,1,0,0,1-1-1V10.085A1.085,1.085,0,0,0-27.255,9h-3.83a1.085,1.085,0,0,0-1.085,1.085V18a1,1,0,0,1-1,1h-3a3,3,0,0,1-3-3V5a1,1,0,0,1,.38-.79l9-7a1,1,0,0,1,1.23,0l9,7A1.015,1.015,0,0,1-19.17,5Z" fill="#b2b3c5"/>
    </g>
  </g>
</svg>
