<svg xmlns="http://www.w3.org/2000/svg" width="20" height="17.515" viewBox="0 0 20 17.515">
  <path id="Delivery_Pickup" data-name="Delivery Pickup" d="M14.167,4.167c0,1.9-2.538,5.274-3.653,6.667a.653.653,0,0,1-1.028,0C8.372,9.441,5.833,6.063,5.833,4.167a4.167,4.167,0,0,1,8.333,0Zm.278,2.792c.122-.24.233-.479.333-.715.017-.042.035-.087.052-.128L18.858,4.5A.833.833,0,0,1,20,5.278v9.4a.838.838,0,0,1-.524.774l-5.031,2.01ZM4.778,4.8a6.591,6.591,0,0,0,.444,1.441c.1.236.212.476.333.715v8.729L1.142,17.455A.833.833,0,0,1,0,16.681v-9.4A.838.838,0,0,1,.524,6.5L4.781,4.8Zm6.6,6.726c.483-.6,1.24-1.587,1.951-2.674V17.51L6.667,15.6V8.854c.712,1.087,1.469,2.069,1.951,2.674A1.766,1.766,0,0,0,11.382,11.528ZM10,5.278A1.389,1.389,0,1,0,8.611,3.889,1.389,1.389,0,0,0,10,5.278Z" fill="#b2b3c5"/>
</svg>
