<svg xmlns="http://www.w3.org/2000/svg" width="20" height="20" viewBox="0 0 20 20">
  <path id="Integrations" d="M14.78,11.259a2.332,2.332,0,0,0-.849-.389,2.218,2.218,0,0,0-.538-.035,3.035,3.035,0,0,0-.5.069,2.635,2.635,0,0,0-.358.129,3.19,3.19,0,0,0-.914.592,3.189,3.189,0,0,0-.593.914,2.623,2.623,0,0,0-.129.358,3.017,3.017,0,0,0-.069.5,2.218,2.218,0,0,0,.035.538,2.433,2.433,0,0,0,.634,1.14,2.408,2.408,0,0,0,1.473.666,2.568,2.568,0,0,1,.518.088.589.589,0,0,1,.236.137.443.443,0,0,1,.049.532,1.339,1.339,0,0,1-.253.368l-.054.056-.138.138-.177.179-.058.057q-.308.31-.618.618-.667.669-1.336,1.335l-.439.439a1.309,1.309,0,0,1-.211.172c-.035.024-.068.044-.1.062a.963.963,0,0,1-1.157-.232l-.31-.309q-.886-.886-1.773-1.772l-.5-.5a3.755,3.755,0,0,0-.382-.333,1.333,1.333,0,0,0-.341-.19.952.952,0,0,0-1.068.259,1.2,1.2,0,0,0-.183.331,2.647,2.647,0,0,0-.115.573,2.03,2.03,0,0,1-1.093,1.614A1.765,1.765,0,0,1,3,19.515a1.8,1.8,0,0,1-.466.02A1.98,1.98,0,0,1,1.194,18.9l-.049-.049a1.98,1.98,0,0,1-.636-1.338,1.786,1.786,0,0,1,.02-.466,1.763,1.763,0,0,1,.152-.467A2.03,2.03,0,0,1,2.3,15.487a2.636,2.636,0,0,0,.573-.115,1.186,1.186,0,0,0,.351-.2.931.931,0,0,0,.251-1.022,1.422,1.422,0,0,0-.2-.37,3.774,3.774,0,0,0-.333-.382l-.5-.5L.86,11.319l-.2-.2-.3-.3A.97.97,0,0,1,.122,9.657c.018-.033.038-.066.06-.1a1.31,1.31,0,0,1,.173-.213L.8,8.905Q1.462,8.237,2.13,7.57q.309-.31.618-.618l.057-.058.175-.174.141-.141.056-.054a1.343,1.343,0,0,1,.368-.253.443.443,0,0,1,.532.049.589.589,0,0,1,.137.236,2.6,2.6,0,0,1,.088.518,2.408,2.408,0,0,0,.666,1.473,2.433,2.433,0,0,0,1.14.634,2.218,2.218,0,0,0,.538.035,3.035,3.035,0,0,0,.5-.069,2.635,2.635,0,0,0,.358-.129,3.19,3.19,0,0,0,.914-.592,3.189,3.189,0,0,0,.593-.914,2.623,2.623,0,0,0,.129-.358,3.017,3.017,0,0,0,.069-.5,2.218,2.218,0,0,0-.035-.538,2.433,2.433,0,0,0-.634-1.14,2.408,2.408,0,0,0-1.473-.666,2.568,2.568,0,0,1-.518-.088.589.589,0,0,1-.236-.137.443.443,0,0,1-.049-.532,1.339,1.339,0,0,1,.253-.368l.054-.056.138-.138.177-.179.058-.057q.308-.31.618-.618Q8.23,1.468,8.9.8L9.338.363A1.309,1.309,0,0,1,9.549.191c.035-.024.068-.044.1-.062a.963.963,0,0,1,1.157.232l.31.309q.886.886,1.773,1.772l.5.5a3.755,3.755,0,0,0,.382.333,1.333,1.333,0,0,0,.341.19.952.952,0,0,0,1.068-.259,1.2,1.2,0,0,0,.183-.331,2.647,2.647,0,0,0,.115-.573A2.03,2.03,0,0,1,16.574.688a1.772,1.772,0,0,1,.467-.152,1.8,1.8,0,0,1,.466-.02,1.98,1.98,0,0,1,1.338.636l.049.049a1.98,1.98,0,0,1,.636,1.338,1.787,1.787,0,0,1-.02.466,1.763,1.763,0,0,1-.152.467,2.03,2.03,0,0,1-1.614,1.093,2.636,2.636,0,0,0-.573.115,1.186,1.186,0,0,0-.351.2A.931.931,0,0,0,16.568,5.9a1.422,1.422,0,0,0,.2.37,3.774,3.774,0,0,0,.333.382l.5.5q.887.889,1.773,1.774l.3.3a.97.97,0,0,1,.243,1.168c-.018.033-.038.066-.06.1a1.31,1.31,0,0,1-.173.213l-.439.439q-.667.668-1.335,1.336-.309.31-.618.618l-.057.058-.175.174-.141.141-.056.054a1.343,1.343,0,0,1-.368.253.443.443,0,0,1-.532-.049.589.589,0,0,1-.137-.236,2.6,2.6,0,0,1-.088-.518,2.408,2.408,0,0,0-.666-1.473A2.28,2.28,0,0,0,14.78,11.259Z" transform="translate(-0.019 -0.026)" fill="#b2b3c5"/>
</svg>
