<svg xmlns="http://www.w3.org/2000/svg" width="20" height="20" viewBox="0 0 20 20">
  <path id="Payment" d="M12.5,3.75h-5L5.648.972A.625.625,0,0,1,6.168,0h7.664a.625.625,0,0,1,.52.972ZM7.5,5h5c.148.1.316.207.473.328C15.223,6.746,20,9.8,20,16.25A3.751,3.751,0,0,1,16.25,20H3.75A3.75,3.75,0,0,1,0,16.25C0,9.8,4.777,6.746,6.992,5.328c.191-.121.359-.23.508-.328Zm3.285,3.75a.794.794,0,0,0-.82-.785.779.779,0,0,0-.75.785v.234a2.578,2.578,0,0,0-.621.2,2.022,2.022,0,0,0-1.215,1.473,1.861,1.861,0,0,0,.133,1.133,1.933,1.933,0,0,0,.676.762,5.566,5.566,0,0,0,1.508.625l.086.023a4.2,4.2,0,0,1,1.145.457.362.362,0,0,1,.145.16.41.41,0,0,1,.012.258.44.44,0,0,1-.312.344,2.136,2.136,0,0,1-1.125.074,8.67,8.67,0,0,1-1.023-.3c-.086-.031-.172-.059-.25-.086a.781.781,0,0,0-.988.5.731.731,0,0,0,.5.953.389.389,0,0,0,.172.094A10.44,10.44,0,0,0,9.215,16v.25a.779.779,0,0,0,.75.785.794.794,0,0,0,.82-.785v-.215c.207-.039.41-.133.6-.18A2.039,2.039,0,0,0,12.5,13.191a1.922,1.922,0,0,0-.66-.8,5.3,5.3,0,0,0-1.578-.68l-.066-.008a4.838,4.838,0,0,1-1.133-.449.382.382,0,0,1-.141-.137.3.3,0,0,1-.008-.2c.016-.078.074-.207.32-.316a2.291,2.291,0,0,1,1.117-.137c.172.063.7.164.852.2a.78.78,0,0,0,.4-1.508c-.172-.047-.563-.125-.82-.172Z" fill="#b2b3c5"/>
</svg>
