<svg xmlns="http://www.w3.org/2000/svg" width="20" height="21.219" viewBox="0 0 20 21.219">
  <path id="Settings" d="M34.645,6.9a.941.941,0,0,1-.261,1.02L32.589,9.557a7.9,7.9,0,0,1,0,2.105L34.383,13.3a.941.941,0,0,1,.261,1.02,10.521,10.521,0,0,1-.651,1.422l-.195.336a10.92,10.92,0,0,1-.916,1.3.948.948,0,0,1-1.015.282l-2.308-.738a9.067,9.067,0,0,1-1.824,1.057l-.518,2.366a.994.994,0,0,1-.754.738,10.829,10.829,0,0,1-1.8.145,10.6,10.6,0,0,1-1.724-.145.994.994,0,0,1-.754-.738l-.518-2.366a8.146,8.146,0,0,1-1.824-1.057l-2.307.738a.946.946,0,0,1-1.016-.282,10.875,10.875,0,0,1-.916-1.3l-.194-.336a10.337,10.337,0,0,1-.654-1.422.942.942,0,0,1,.263-1.02l1.793-1.633a8.04,8.04,0,0,1,0-2.105L15.021,7.924a.94.94,0,0,1-.263-1.02,10.386,10.386,0,0,1,.654-1.422l.194-.336a10.736,10.736,0,0,1,.917-1.3.941.941,0,0,1,1.016-.282l2.307.736A7.97,7.97,0,0,1,21.669,3.25L22.187.884a.94.94,0,0,1,.754-.739,10.736,10.736,0,0,1,3.523,0,.94.94,0,0,1,.754.739l.518,2.366a8.85,8.85,0,0,1,1.824,1.056l2.308-.736a.943.943,0,0,1,1.015.282,10.731,10.731,0,0,1,.916,1.3l.195.336A10.521,10.521,0,0,1,34.645,6.9ZM24.7,13.925a3.334,3.334,0,1,0-3.315-3.353A3.323,3.323,0,0,0,24.7,13.925Z" transform="translate(-14.702)" fill="#b2b3c5"/>
</svg>
