<svg xmlns="http://www.w3.org/2000/svg" width="20" height="22" viewBox="0 0 20 22">
  <g id="orders" transform="translate(100.38 -1)">
    <path id="Path_16992" data-name="Path 16992" d="M-80.4,5.8a.6.6,0,0,0-.06-.19,1.2,1.2,0,0,0-.08-.16c-.04-.06-.09-.11-.13-.16L-83.58,1.4a1.014,1.014,0,0,0-.8-.4h-12a1,1,0,0,0-.8.4l-2.91,3.89a1.009,1.009,0,0,0-.13.16,1.194,1.194,0,0,0-.08.16.6.6,0,0,0-.06.19,1.23,1.23,0,0,0-.02.2V20a3,3,0,0,0,3,3h14a3.009,3.009,0,0,0,3-3V6A1.23,1.23,0,0,0-80.4,5.8ZM-90.38,15a5,5,0,0,1-5-5,1,1,0,0,1,1-1,1,1,0,0,1,1,1,3,3,0,0,0,3,3,3.009,3.009,0,0,0,3-3,1,1,0,0,1,1-1,1,1,0,0,1,1,1A5.008,5.008,0,0,1-90.38,15Zm-7-10,1.5-2h11l1.5,2Z" transform="translate(0)" fill="#b2b3c5"/>
  </g>
</svg>
