<svg xmlns="http://www.w3.org/2000/svg" width="349.565" height="147.001" viewBox="0 0 349.565 147.001">
  <g id="Confetti" transform="translate(-21.283 17.938)" opacity="0.7">
    <path id="Path_34820" data-name="Path 34820" d="M314.573,35.145c-8.46-.846-20.032,13.383-11.708,20.219,4.619,3.79,14.72,2.149,14.6-4.957a.914.914,0,0,0-.745-.778c-6.768-1.54-13.332,1.337-12.2,9.153a15.024,15.024,0,0,0,14.094,12.334c.406,0,.254-.694,0-.761-5.82-1.235-11.336-4.856-12.469-11.1a7.918,7.918,0,0,1,1.252-6.446,6.243,6.243,0,0,1,3.046-2.03c1-.321,4.6-.88,5.38,0,1.59,1.692-2.69,4.382-3.959,4.805a9.018,9.018,0,0,1-7.715-.728c-3.536-2.47-2.656-7.14-.947-10.439,2.3-4.467,6.362-8.1,11.573-8.274.474,0,.237-.9-.135-.931Z" transform="translate(51.981 -45.791)" fill="#f7b500"/>
    <path id="Path_34836" data-name="Path 34836" d="M270.175,41.608s-6.493.815-10.455-3.761l1.254-5.177s1.855,3.284,8.95,4.488Z" transform="translate(47.388 -30.352)" fill="#f7b500" opacity="0.4"/>
    <path id="Path_34837" data-name="Path 34837" d="M316.361,114.851s-8.764,1.083-14.111-5.076l1.692-7s2.5,4.433,12.08,6.057Z" transform="translate(53.544 1.027)" fill="#6974fb"/>
    <path id="Path_34841" data-name="Path 34841" d="M218.272,44.273c5.732-.573,13.574,9.057,7.922,13.7-3.13,2.568-9.974,1.456-9.894-3.359a.619.619,0,0,1,.5-.539c4.586-1.032,9.034.917,8.266,6.214a10.18,10.18,0,0,1-9.538,8.358c-.275,0-.183-.47,0-.516,3.955-.837,7.681-3.29,8.461-7.521a5.411,5.411,0,0,0-.86-4.368,4.173,4.173,0,0,0-2.064-1.376c-.676-.218-3.107-.608-3.646,0-1.078,1.146,1.834,2.969,2.694,3.267a6.133,6.133,0,0,0,5.216-.493c2.4-1.674,1.8-4.838.642-7.085-1.559-3.015-4.311-5.48-7.842-5.595-.321,0-.149-.608.1-.631Z" transform="translate(55.802 -27.86)" fill="#fd0087" stroke="#fd0087" stroke-width="1"/>
    <path id="Path_34843" data-name="Path 34843" d="M87.167,32.478c-5.583-1.692-13.282-1.184-17.985,2.606-3.6,2.91-5.685,9.238-.338,11.4,2.1.846,9,.846,9.83-2.013.575-1.98-1.557-3.164-3.265-3.384-5.076-.761-9.712,4.518-9.593,9.255.169,7.089,8.46,9.441,14.263,9.492.389,0,.288.728,0,.761-9.932.947-21.031-8.257-12.2-17.478,2.386-2.487,6.108-4.264,9.526-2.893,1.946.778,3.468,2.538,2.5,4.636-1.54,3.384-7.783,3.959-10.811,3.1a6.057,6.057,0,0,1-4.2-7.8c2.386-9.035,14.957-10.9,22.384-8.206.22.085.135.609-.135.524Z" transform="translate(17.41 -48.759)" fill="#6974fb"/>
    <path id="Path_34845" data-name="Path 34845" d="M51.538,89.08c6.768,2,12.892,13.739,6.768,19.085-5.279,4.551-15.921,3.5-14.161-5.076a.575.575,0,0,1,.372-.44c6.988-1.692,9.306,6.5,7.834,11.844-2.284,8.46-10.744,8.274-16.919,3.891-.186-.135-.1-.711.186-.575,4.991,2.5,12,4.721,15.041-1.692,1.692-3.384,1.692-9.052-1.455-11.691a4.382,4.382,0,0,0-3.012-1.167c-2.335.271-1.929,2.792-.609,4.4,2.1,2.538,6.311,2.267,9.1,1.286,9.627-3.384,3.012-15.871-3.248-19.356-.186-.118-.152-.592.118-.525Z" transform="translate(5.172 -13.726)" fill="#f7b500"/>
    <path id="Path_34848" data-name="Path 34848" d="M128.166,36.25s.491,8.815-6.074,13.722l-6.852-2.081s4.585-2.2,6.852-11.641Z" transform="translate(52.463 -45.002)" fill="#f7b500"/>
    <path id="Path_34851" data-name="Path 34851" d="M28.7,54.139s3.993,7.884,12.114,8.849l4.907-5.245s-5.076.389-11.843-6.632Z" transform="translate(-7.417 -34.72)" fill="#f7b500"/>
    <path id="Path_34853" data-name="Path 34853" d="M121.31,137.645s3.993,7.868,12.131,8.832l4.89-5.245s-5.076.389-11.844-6.632Z" transform="translate(217.463 -66.334)" fill="#00d9cc"/>
    <path id="Path_34854" data-name="Path 34854" d="M190.74,78.936s3.993,7.868,12.114,8.832l4.906-5.245s-5.076.389-11.843-6.632Z" transform="translate(11.258 -31.708)" fill="#f7b500"/>
    <path id="Path_34855" data-name="Path 34855" d="M76.39,76.014s8.764,1.083,14.094-5.076L88.792,63.95s-2.5,4.416-12.08,6.057Z" transform="translate(28.43 -20.027)" fill="#00d9cc"/>
    <path id="Path_34856" data-name="Path 34856" d="M160.76,41.7s6.493.8,10.455-3.761l-1.191-5.177s-1.868,3.272-8.963,4.488Z" transform="translate(44.52 -25.944)" fill="#00d9cc"/>
    <path id="Path_34859" data-name="Path 34859" d="M111.89,91.294s3.993,7.868,12.131,8.832l4.89-5.245s-5.989.931-12.689-6.091Z" transform="translate(50.145 -8.647)" fill="#af151f"/>
    <path id="Path_34860" data-name="Path 34860" d="M121.948,97.611s-1.573,8.7-9.069,11.962l-6.209-3.621a22.774,22.774,0,0,0,10.405-9.492Z" transform="translate(-13.265 19.49)" fill="#e7a3ff"/>
    <path id="Path_34861" data-name="Path 34861" d="M288.831,68.344s-3.993,7.884-12.114,8.849l-4.907-5.245s6.006.914,12.706-6.108Z" transform="translate(32.481 -24.526)" fill="#e7a3ff"/>
    <path id="Path_34862" data-name="Path 34862" d="M257.888,80.217s-1.573,8.68-9.069,11.945l-6.209-3.6a22.756,22.756,0,0,0,10.405-9.509Z" transform="translate(12.278 -15.385)" fill="#00d9cc"/>
  </g>
</svg>
