<svg xmlns="http://www.w3.org/2000/svg" width="16.691" height="22.08" viewBox="0 0 16.691 22.08">
  <g id="green" transform="translate(0.169 -3.078)">
    <path id="Path_35127" data-name="Path 35127" d="M41.2,148.8l-1.756-4.566a.363.363,0,0,0-.678,0L37.009,148.8a.363.363,0,0,1-.209.209l-4.566,1.756a.363.363,0,0,0,0,.678L36.8,153.2a.363.363,0,0,1,.209.209l1.756,4.566a.363.363,0,0,0,.678,0l1.756-4.566a.363.363,0,0,1,.209-.209l4.566-1.757a.363.363,0,0,0,0-.678l-4.566-1.756A.363.363,0,0,1,41.2,148.8Z" transform="translate(-31.17 -134.05)" fill="#1bfcb6" stroke="#1bfcb6" stroke-linecap="round" stroke-linejoin="round" stroke-width="2"/>
    <path id="Path_35129" data-name="Path 35129" d="M307.379,49.91,306.644,48l-.735,1.91-1.91.735,1.91.735.735,1.91.735-1.91,1.91-.735Z" transform="translate(-293.767 -43.922)" fill="#1bfcb6" stroke="#1bfcb6" stroke-linecap="round" stroke-linejoin="round" stroke-width="2"/>
  </g>
</svg>
