<svg id="AccountSettings" xmlns="http://www.w3.org/2000/svg" width="24" height="26.117" viewBox="0 0 24 26.117">
  <path id="Process" d="M8.127,18.36l.063-2.215c-.469-.089-1.126-.881-1.392-1.3l.9-2.012A3.279,3.279,0,0,1,9.6,13L11.2,11.468a3.2,3.2,0,0,1-.057-1.9L13.2,8.784c.4.287,1.157.985,1.22,1.46l2.215.057c.089-.469.886-1.116,1.3-1.387l2.012.9a3.279,3.279,0,0,1-.167,1.9l1.522,1.606a3.265,3.265,0,0,1,1.9-.057L24,15.315c-.287.412-.985,1.157-1.454,1.225l-.063,2.215c.464.094,1.116.881,1.387,1.3l-.9,2.012a3.354,3.354,0,0,1-1.9-.162l-1.606,1.517a3.263,3.263,0,0,1,.057,1.9l-2.054.787c-.407-.292-1.162-.99-1.225-1.46l-2.215-.063c-.094.474-.881,1.121-1.308,1.387l-2.007-.891a3.318,3.318,0,0,1,.162-1.9L9.357,21.576a3.237,3.237,0,0,1-1.908.063L6.667,19.58C6.959,19.178,7.652,18.428,8.127,18.36Zm4.858-.016a2.513,2.513,0,1,0-.165-.968,2.516,2.516,0,0,0,.165.968ZM.01,4.019c.245-.2.824-.563,1.11-.469L2,2.049c-.219-.2-.188-.886-.13-1.194L3.378,0c.3.109.9.433.959.725L6.078.74c.068-.292.672-.6.97-.714L8.539.907c.052.308.073.99-.146,1.194l.855,1.512c.292-.089.865.281,1.105.485l-.016,1.731c-.245.2-.824.558-1.11.469L8.346,7.8c.219.2.188.886.13,1.194L6.97,9.847c-.292-.109-.891-.433-.959-.725L4.275,9.107c-.073.292-.678.6-.975.714L1.809,8.94c-.052-.313-.073-.99.151-1.194L1.1,6.235C.813,6.318.24,5.953,0,5.75ZM5.176,6.287a1.363,1.363,0,1,0-.523-.1,1.363,1.363,0,0,0,.523.1Z" fill="#8688a3"/>
</svg>
