<svg xmlns="http://www.w3.org/2000/svg" width="119.002" height="89" viewBox="0 0 119.002 89">
  <g id="added" transform="translate(19570.002 18031)">
    <path id="CustomerBG" d="M-3877.085-2194a11.4,11.4,0,0,0,.336-2.75v-1.437a35.856,35.856,0,0,0-12.542-27.277c.432-.018.844-.036,1.276-.036h11.032a28.859,28.859,0,0,1,16.984,5.494V-2210a16,16,0,0,1-16,16Zm-79.914,0a15.926,15.926,0,0,1-8-2.139c0-.065,0-.131,0-.2a32.032,32.032,0,0,1,32.039-32.039h16.423a32.032,32.032,0,0,1,32.039,32.039,5.311,5.311,0,0,1-.538,2.336Zm57.376-48.911A28.61,28.61,0,0,0-3894-2260a28.566,28.566,0,0,0-3.287-13.351,20.116,20.116,0,0,1,11.913-3.9,20.115,20.115,0,0,1,20.124,20.125A20.115,20.115,0,0,1-3885.375-2237,20.084,20.084,0,0,1-3899.624-2242.912ZM-3947.75-2260a23,23,0,0,1,23-23,23,23,0,0,1,23,23,23,23,0,0,1-23,23A23,23,0,0,1-3947.75-2260Z" transform="translate(-15591 -15748)" fill="#8688a3" opacity="0.08"/>
    <path id="Union_50" data-name="Union 50" d="M-22166.664-13751a4,4,0,0,1-4-4v-5.338H-22176a4,4,0,0,1-4-4v-1.336a4,4,0,0,1,4-4h5.332V-13775a4,4,0,0,1,4-4h1.33a4,4,0,0,1,4,4v5.333h5.334a4,4,0,0,1,4,4v1.336a4,4,0,0,1-4,4h-5.334v5.338a4,4,0,0,1-4,4Z" transform="translate(2610 -4220)" fill="#ecedf2"/>
  </g>
</svg>
