<svg id="apple-pay" xmlns="http://www.w3.org/2000/svg" width="30.857" height="24" viewBox="0 0 30.857 24">
  <g id="Group_8293" data-name="Group 8293" transform="translate(0 0)">
    <g id="Group_8292" data-name="Group 8292" transform="translate(0 0)">
      <path id="Path_35103" data-name="Path 35103" d="M226.082,205.128h-1.307v2.9h1.3a1.455,1.455,0,1,0,.005-2.9Z" transform="translate(-211.441 -196.541)" fill="#313c42"/>
      <path id="Path_35104" data-name="Path 35104" d="M305.273,264.919c0,.445.386.734.991.734a1.231,1.231,0,0,0,1.35-1.173v-.412l-1.259.08C305.643,264.2,305.273,264.458,305.273,264.919Z" transform="translate(-286.539 -251.526)" fill="#313c42"/>
      <path id="Path_35105" data-name="Path 35105" d="M54.286,77.111H28.572A2.572,2.572,0,0,0,26,79.682V98.539a2.572,2.572,0,0,0,2.571,2.571H54.286a2.572,2.572,0,0,0,2.571-2.571V79.682A2.572,2.572,0,0,0,54.286,77.111ZM33.271,84.793a1.761,1.761,0,0,1,1.173-.605,1.768,1.768,0,0,1-.412,1.27,1.485,1.485,0,0,1-1.184.557A1.681,1.681,0,0,1,33.271,84.793Zm2.287,6.337c-.337.487-.675.964-1.221.975-.525.005-.7-.316-1.3-.316s-.8.3-1.3.322c-.525.021-.927-.514-1.259-1-.68-.986-1.2-2.775-.5-3.986a1.922,1.922,0,0,1,1.634-1c.514-.011.986.343,1.3.343s.868-.407,1.521-.37a1.844,1.844,0,0,1,1.452.787,1.8,1.8,0,0,0-.857,1.511,1.767,1.767,0,0,0,1.061,1.607A4.538,4.538,0,0,1,35.558,91.13ZM40.9,89.555h-1.57v2.5H38.2V84.745h2.743a2.293,2.293,0,0,1,2.405,2.4A2.32,2.32,0,0,1,40.9,89.555Zm7.259-1.141v3.643h-1.05v-.879h-.021a1.87,1.87,0,0,1-1.671.932,1.606,1.606,0,0,1-1.789-1.575c0-.937.712-1.479,2.03-1.559l1.414-.086v-.4c0-.6-.386-.921-1.082-.921a1,1,0,0,0-1.072.745H43.9a1.9,1.9,0,0,1,2.127-1.634c1.3,0,2.143.68,2.143,1.736h-.005Zm3.493,3.921c-.455,1.28-.975,1.7-2.084,1.7a2.8,2.8,0,0,1-.434-.027v-.879c.07.005.241.016.332.016a.9.9,0,0,0,.959-.761l.1-.321-1.923-5.32H49.8l1.334,4.318h.021l1.334-4.318h1.152Z" transform="translate(-26.001 -77.111)" fill="#313c42"/>
    </g>
  </g>
</svg>
