<svg xmlns="http://www.w3.org/2000/svg" width="40.121" height="28.84" viewBox="0 0 40.121 28.84">
  <g id="button" transform="translate(-3570.397 231.894)">
    <g id="Path_35041" data-name="Path 35041">
      <path id="Path_35201" data-name="Path 35201" d="M3599.39-203.5l-.79.42a.267.267,0,0,1-.12.03.245.245,0,0,1-.21-.13l-2-3.74-1.79.95a.255.255,0,0,1-.24,0,.24.24,0,0,1-.12-.2l-.19-3.86-.04-.75-.03-.75-.05-.99a.249.249,0,0,1,.13-.22.227.227,0,0,1,.26.02l1.61,1.19,1.01.75,1.02.75,1.47,1.09a.242.242,0,0,1,.09.21.227.227,0,0,1-.12.2l-1.79.96,2,3.74A.257.257,0,0,1,3599.39-203.5Z" fill="#b2b3c5"/>
    </g>
    <g id="Line_1188" data-name="Line 1188">
      <path id="Path_35202" data-name="Path 35202" d="M3578.61-228.594a1,1,0,0,1,.35-1.37,1,1,0,0,1,1.37.35l2,3.37a.993.993,0,0,1-.34,1.37.959.959,0,0,1-.51.14.969.969,0,0,1-.86-.49Z" fill="#b2b3c5"/>
      <path id="Path_35203" data-name="Path 35203" d="M3575.39-219.034a1,1,0,0,1-.86.48,1.006,1.006,0,0,1-.52-.15l-3.06-1.87a1.006,1.006,0,0,1-.33-1.38.994.994,0,0,1,1.37-.33l3.07,1.87A1.006,1.006,0,0,1,3575.39-219.034Z" fill="#b2b3c5"/>
      <path id="Path_35204" data-name="Path 35204" d="M3589.5-226.964v-3.93a1,1,0,0,1,1-1,1,1,0,0,1,1,1v3.93a1,1,0,0,1-1,1A1,1,0,0,1,3589.5-226.964Z" fill="#b2b3c5"/>
      <path id="Path_35205" data-name="Path 35205" d="M3609.59-210.994a1,1,0,0,1-1,.93h-.07l-2.18-.15a1,1,0,0,1-.93-1.07,1,1,0,0,1,1.06-.93l2.19.15A1,1,0,0,1,3609.59-210.994Z" fill="#b2b3c5"/>
      <path id="Path_35206" data-name="Path 35206" d="M3610.04-220.574l-3.06,1.87a1.033,1.033,0,0,1-.52.15,1,1,0,0,1-.86-.48,1.006,1.006,0,0,1,.33-1.38l3.07-1.87a.994.994,0,0,1,1.37.33A1.006,1.006,0,0,1,3610.04-220.574Z" fill="#b2b3c5"/>
      <path id="Path_35207" data-name="Path 35207" d="M3598.66-226.244l2-3.37a1,1,0,0,1,1.37-.35,1,1,0,0,1,.35,1.37l-2.01,3.37a.981.981,0,0,1-.86.49.959.959,0,0,1-.51-.14A.993.993,0,0,1,3598.66-226.244Z" fill="#b2b3c5"/>
      <path id="Path_35208" data-name="Path 35208" d="M3574.58-211.284a1,1,0,0,1-.93,1.07l-2.19.15h-.06a1,1,0,0,1-1-.93,1,1,0,0,1,.93-1.07l2.19-.15A1,1,0,0,1,3574.58-211.284Z" fill="#b2b3c5"/>
      <path id="Path_35209" data-name="Path 35209" d="M3603.59-219.284v5.83a3.419,3.419,0,0,1-3.25,3.42,1.742,1.742,0,0,0-.14-.12l-.85-.63-1.02-.75-3.24-2.4a1.75,1.75,0,0,0-1.04-.34,1.837,1.837,0,0,0-.82.2,1.763,1.763,0,0,0-.92,1.63l.04.91.08,1.5h-11.91a3.435,3.435,0,0,1-3.43-3.43v-5.82a3.435,3.435,0,0,1,3.43-3.43h19.64A3.429,3.429,0,0,1,3603.59-219.284Z" fill="#b2b3c5"/>
    </g>
  </g>
</svg>
