<svg xmlns="http://www.w3.org/2000/svg" width="24" height="27.429" viewBox="0 0 24 27.429">
  <path id="calendar-days" d="M6.857,0A1.712,1.712,0,0,1,8.571,1.714V3.429h6.857V1.714a1.714,1.714,0,0,1,3.429,0V3.429h2.571A2.572,2.572,0,0,1,24,6V8.571H0V6A2.572,2.572,0,0,1,2.571,3.429H5.143V1.714A1.712,1.712,0,0,1,6.857,0ZM0,10.286H24V24.857a2.572,2.572,0,0,1-2.571,2.571H2.571A2.572,2.572,0,0,1,0,24.857Zm3.429,4.286v1.714a.86.86,0,0,0,.857.857H6a.86.86,0,0,0,.857-.857V14.571A.86.86,0,0,0,6,13.714H4.286A.86.86,0,0,0,3.429,14.571Zm6.857,0v1.714a.86.86,0,0,0,.857.857h1.714a.86.86,0,0,0,.857-.857V14.571a.86.86,0,0,0-.857-.857H11.143A.86.86,0,0,0,10.286,14.571ZM18,13.714a.86.86,0,0,0-.857.857v1.714a.86.86,0,0,0,.857.857h1.714a.86.86,0,0,0,.857-.857V14.571a.86.86,0,0,0-.857-.857ZM3.429,21.429v1.714A.86.86,0,0,0,4.286,24H6a.86.86,0,0,0,.857-.857V21.429A.86.86,0,0,0,6,20.571H4.286A.86.86,0,0,0,3.429,21.429Zm7.714-.857a.86.86,0,0,0-.857.857v1.714a.86.86,0,0,0,.857.857h1.714a.86.86,0,0,0,.857-.857V21.429a.86.86,0,0,0-.857-.857Z" fill="#b2b3c5"/>
</svg>
