<svg xmlns="http://www.w3.org/2000/svg" width="20" height="22" viewBox="0 0 20 22">
  <g id="cart4" transform="translate(-555.66 -1578.57)">
    <g id="shopping-bag">
      <g id="Line_919" data-name="Line 919">
        <path id="Path_35166" data-name="Path 35166" d="M575.64,1583.37a1.052,1.052,0,0,0-.27-.51l-2.91-3.89a1.014,1.014,0,0,0-.8-.4h-12a1,1,0,0,0-.8.4l-2.91,3.89a1.052,1.052,0,0,0-.27.51,1.231,1.231,0,0,0-.02.2v14a3,3,0,0,0,3,3h14a3,3,0,0,0,3-3v-14A1.231,1.231,0,0,0,575.64,1583.37Zm-9.98,9.2a5,5,0,0,1-5-5,1,1,0,0,1,2,0,3,3,0,0,0,6,0,1,1,0,0,1,2,0A5,5,0,0,1,565.66,1592.57Zm-7-10,1.5-2h11l1.5,2Z" fill="#0f1349"/>
      </g>
    </g>
  </g>
</svg>
