<svg xmlns="http://www.w3.org/2000/svg" width="28" height="28" viewBox="0 0 28 28">
  <g id="CategoriesN" transform="translate(15054 18268)">
    <circle id="Ellipse_1080" data-name="Ellipse 1080" cx="14" cy="14" r="14" transform="translate(-15054 -18268)" fill="#8688a3" opacity="0.2"/>
    <path id="shapes-solid_1_" data-name="shapes-solid (1)" d="M12.856,5.484a1,1,0,0,1,.013,1.009A.972.972,0,0,1,12,6.972H6a.972.972,0,0,1-.869-.478,1,1,0,0,1,.012-1.009l3-5a1,1,0,0,1,1.712,0ZM9,9.75A1.25,1.25,0,0,1,10.25,8.5h4.5A1.25,1.25,0,0,1,16,9.75v4.5a1.25,1.25,0,0,1-1.25,1.25h-4.5A1.25,1.25,0,0,1,9,14.25ZM0,12a4,4,0,1,1,4,4A4,4,0,0,1,0,12Z" transform="translate(-15048 -18262)" fill="#8688a3"/>
  </g>
</svg>
