<svg xmlns="http://www.w3.org/2000/svg" width="30" height="29.527" viewBox="0 0 30 29.527">
  <path id="color" d="M30.186,21.189c-.148.1-3.228,3.362-3.228,5.649,0,2.411,1.532,3.951,3.228,4.035,1.462.071,3.228-1.438,3.228-4.035C33.414,24.418,30.334,21.293,30.186,21.189ZM13.376,30.874a3.227,3.227,0,0,0,4.565,0l11.3-11.3L28.1,18.434,15.659,5.994l-3.7-3.7L9.675,4.575l3.7,3.7L4.36,17.293a3.227,3.227,0,0,0,0,4.565Zm2.282-20.315,9.016,9.016H6.642Z" transform="translate(-3.414 -2.293)" fill="#b2b3c5"/>
</svg>
