<svg xmlns="http://www.w3.org/2000/svg" width="400" height="143.081" viewBox="0 0 400 143.081">
  <g id="Confetti_L" transform="translate(-21.283 8.752)" opacity="0.7">
    <path id="Path_34820" data-name="Path 34820" d="M316.722,35.15c-9.706-.971-22.985,15.356-13.434,23.2,5.3,4.349,16.889,2.465,16.753-5.688a1.048,1.048,0,0,0-.854-.893c-7.765-1.767-15.3,1.534-14,10.5a17.239,17.239,0,0,0,16.171,14.152c.466,0,.291-.8,0-.874-6.678-1.417-13.007-5.572-14.307-12.735a9.085,9.085,0,0,1,1.437-7.4,7.163,7.163,0,0,1,3.494-2.33c1.145-.369,5.28-1.009,6.173,0,1.825,1.941-3.087,5.028-4.543,5.513a10.347,10.347,0,0,1-8.852-.835c-4.057-2.834-3.048-8.192-1.087-11.978,2.64-5.125,7.3-9.3,13.278-9.493.543,0,.272-1.029-.155-1.068Z" transform="translate(89.242 -23.128)" fill="#f7b500"/>
    <path id="Path_34836" data-name="Path 34836" d="M271.715,42.925s-7.45.935-12-4.315l1.438-5.94s2.129,3.768,10.27,5.149Z" transform="translate(89.511 -28.72)" fill="#f7b500" opacity="0.4"/>
    <path id="Path_34837" data-name="Path 34837" d="M318.44,116.631s-10.056,1.242-16.19-5.824l1.941-8.037s2.873,5.086,13.861,6.95Z" transform="translate(102.843 17.614)" fill="#6974fb"/>
    <path id="Path_34841" data-name="Path 34841" d="M218.7,44.277c6.577-.658,15.574,10.392,9.089,15.719-3.591,2.947-11.444,1.671-11.352-3.854a.71.71,0,0,1,.579-.618c5.262-1.184,10.365,1.052,9.484,7.13a11.681,11.681,0,0,1-10.944,9.589c-.316,0-.21-.539,0-.592,4.538-.96,8.813-3.775,9.708-8.629a6.209,6.209,0,0,0-.987-5.012,4.788,4.788,0,0,0-2.368-1.579c-.776-.25-3.565-.7-4.183,0-1.237,1.315,2.1,3.407,3.091,3.749a7.037,7.037,0,0,0,5.985-.566c2.749-1.921,2.065-5.551.737-8.129-1.789-3.46-4.946-6.288-9-6.419-.368,0-.171-.7.118-.723Z" transform="translate(92.628 -35.628)" fill="#fd0087" stroke="#fd0087" stroke-width="1"/>
    <path id="Path_34843" data-name="Path 34843" d="M90.5,32.722c-6.406-1.941-15.239-1.359-20.636,2.99-4.135,3.339-6.523,10.6-.388,13.084,2.407.971,10.328.971,11.279-2.31.66-2.271-1.786-3.63-3.747-3.883C71.179,41.729,65.86,47.786,66,53.222c.194,8.134,9.706,10.832,16.365,10.891.447,0,.33.835,0,.874-11.4,1.087-24.13-9.474-14-20.054,2.737-2.854,7.008-4.892,10.929-3.32,2.232.893,3.98,2.912,2.873,5.319-1.767,3.883-8.93,4.543-12.4,3.553a6.95,6.95,0,0,1-4.814-8.949c2.737-10.367,17.161-12.5,25.683-9.415.252.1.155.7-.155.6Z" transform="translate(14.883 -27.166)" fill="#6974fb"/>
    <path id="Path_34845" data-name="Path 34845" d="M53.926,89.083c7.765,2.291,14.793,15.763,7.765,21.9C55.634,116.2,43.424,115,45.443,105.157a.66.66,0,0,1,.427-.5c8.017-1.941,10.677,7.455,8.988,13.589-2.621,9.707-12.327,9.493-19.413,4.465-.214-.155-.116-.815.214-.66,5.727,2.873,13.764,5.416,17.258-1.941,1.941-3.883,1.941-10.386-1.67-13.414a5.028,5.028,0,0,0-3.455-1.339c-2.679.311-2.213,3.2-.7,5.047,2.407,2.912,7.241,2.6,10.444,1.475,11.046-3.883,3.455-18.209-3.727-22.209-.214-.136-.175-.679.136-.6Z" transform="translate(8.004 -1.334)" fill="#f7b500"/>
    <path id="Path_34848" data-name="Path 34848" d="M130.071,36.25s.563,10.114-6.969,15.744l-7.862-2.388S120.5,47.082,123.1,36.25Z" transform="translate(74.042 -45.002)" fill="#f7b500"/>
    <path id="Path_34851" data-name="Path 34851" d="M28.7,54.585s4.581,9.046,13.9,10.153l5.63-6.018s-5.824.446-13.589-7.61Z" transform="translate(-7.417 -31.015)" fill="#f7b500"/>
    <path id="Path_34853" data-name="Path 34853" d="M121.31,138.094s4.581,9.027,13.919,10.134l5.61-6.018s-5.824.447-13.589-7.61Z" transform="translate(264.253 -54.984)" fill="#fd4baa"/>
    <path id="Path_34854" data-name="Path 34854" d="M190.74,79.384s4.581,9.027,13.9,10.134l5.63-6.018s-5.824.447-13.589-7.61Z" transform="translate(72.312 -46.855)" fill="#f7b500"/>
    <path id="Path_34855" data-name="Path 34855" d="M76.39,77.791s10.056,1.242,16.171-5.824L90.62,63.95s-2.873,5.067-13.861,6.95Z" transform="translate(40.742 -23.737)" fill="#00d9cc"/>
    <path id="Path_34856" data-name="Path 34856" d="M160.76,43.015s7.45.921,12-4.315l-1.366-5.94s-2.143,3.754-10.284,5.149Z" transform="translate(71.637 -23.65)" fill="#00d9cc"/>
    <path id="Path_35011" data-name="Path 35011" d="M0,10.255s7.45.921,12-4.315L10.629,0S8.486,3.754.345,5.149Z" transform="translate(164.274 6.495) rotate(60)" fill="#959dfc"/>
    <path id="Path_34861" data-name="Path 34861" d="M291.339,68.713s-4.581,9.046-13.9,10.153l-5.63-6.018S278.7,73.9,286.389,65.84Z" transform="translate(74.19 -17.147)" fill="#e7a3ff"/>
    <path id="Path_34862" data-name="Path 34862" d="M260.14,80.389s-1.805,9.959-10.405,13.706L242.61,89.96a26.11,26.11,0,0,0,11.939-10.91Z" transform="translate(58.179 -16.186)" fill="#00d9cc"/>
  </g>
</svg>
