<svg xmlns="http://www.w3.org/2000/svg" width="65.772" height="60" viewBox="0 0 65.772 60">
  <path id="custom" d="M93.057,64.508a2.384,2.384,0,0,1-2.384,2.384H85.905V71.66a2.384,2.384,0,0,1-4.768,0V66.892H76.37a2.384,2.384,0,1,1,0-4.768h4.768V57.356a2.384,2.384,0,1,1,4.768,0v4.768h4.768A2.384,2.384,0,0,1,93.057,64.508ZM38.226,39.476H41.8v3.576a2.384,2.384,0,0,0,4.768,0V39.476h3.576a2.384,2.384,0,1,0,0-4.768H46.57V31.132a2.384,2.384,0,1,0-4.768,0v3.576H38.226a2.384,2.384,0,1,0,0,4.768ZM73.986,76.428H71.6V74.044a2.384,2.384,0,0,0-4.768,0v2.384H64.45a2.384,2.384,0,1,0,0,4.768h2.384v2.384a2.384,2.384,0,0,0,4.768,0V81.2h2.384a2.384,2.384,0,1,0,0-4.768ZM73.3,54.287,41.594,85.963a4.738,4.738,0,0,1-6.735,0l-6.168-6.168a4.738,4.738,0,0,1,0-6.735L73,28.748a4.8,4.8,0,0,1,6.735,0l6.168,6.168a4.738,4.738,0,0,1,0,6.735ZM65.433,43.052,71.6,49.221,82.538,38.284h0L76.37,32.116Z" transform="translate(-27.286 -27.368)" fill="#8688a3" opacity="0.2"/>
</svg>
