<svg xmlns="http://www.w3.org/2000/svg" width="28" height="28" viewBox="0 0 28 28">
  <g id="customersN" transform="translate(15318 18268)">
    <circle id="Ellipse_1077" data-name="Ellipse 1077" cx="14" cy="14" r="14" transform="translate(-15318 -18268)" fill="#8688a3" opacity="0.2"/>
    <path id="user-group-solid_4_" data-name="user-group-solid (4)" d="M2.4,3.2A3.2,3.2,0,1,1,5.6,6.4,3.2,3.2,0,0,1,2.4,3.2ZM0,12.057A4.457,4.457,0,0,1,4.457,7.6H6.742A4.457,4.457,0,0,1,11.2,12.057a.743.743,0,0,1-.743.742H.743A.743.743,0,0,1,0,12.057Zm15.233.742H11.785A1.6,1.6,0,0,0,12,12v-.2a4.988,4.988,0,0,0-1.745-3.8c.06,0,.117-.005.177-.005h1.535A4.032,4.032,0,0,1,16,12.032.768.768,0,0,1,15.233,12.8ZM10.8,6.4a2.794,2.794,0,0,1-1.983-.822,4,4,0,0,0,.325-4.235A2.8,2.8,0,1,1,10.8,6.4Z" transform="translate(-15312 -18260)" fill="#8688a3"/>
  </g>
</svg>
