<svg xmlns="http://www.w3.org/2000/svg" width="40" height="32" viewBox="0 0 40 32">
  <path id="customers" d="M6,8a8,8,0,1,1,8,8A8,8,0,0,1,6,8ZM0,30.144A11.142,11.142,0,0,1,11.144,19h5.713A11.142,11.142,0,0,1,28,30.144,1.856,1.856,0,0,1,26.144,32H1.856A1.856,1.856,0,0,1,0,30.144ZM38.081,32H29.462A4,4,0,0,0,30,30v-.5a12.471,12.471,0,0,0-4.362-9.487c.15-.006.294-.013.444-.013h3.837A10.08,10.08,0,0,1,40,30.081,1.919,1.919,0,0,1,38.081,32ZM27,16a6.986,6.986,0,0,1-4.956-2.056,10,10,0,0,0,.813-10.588A7,7,0,1,1,27,16Z" fill="#fb8500"/>
</svg>
