<svg xmlns="http://www.w3.org/2000/svg" width="34.142" height="20" viewBox="0 0 34.142 20">
  <g id="delivery" transform="translate(-300.857 -250)">
    <path id="_9111289_delivery_icon" data-name="9111289_delivery_icon" d="M26.106,19.667h1.561v-4.62l-3.7-2.467L21.509,7.667H3.667v12H5.228a4,4,0,0,1,7.545,0h5.789a4,4,0,0,1,7.545,0Zm0,2.667a4,4,0,0,1-7.545,0H12.772a4,4,0,0,1-7.545,0H3.667A2.667,2.667,0,0,1,1,19.667v-12A2.667,2.667,0,0,1,3.667,5H21.509a2.667,2.667,0,0,1,2.385,1.474l2.14,4.28,4.3,2.866v6.047a2.667,2.667,0,0,1-2.667,2.667ZM9,22.333A1.333,1.333,0,1,0,7.667,21,1.333,1.333,0,0,0,9,22.333Zm13.333,0A1.333,1.333,0,1,0,21,21,1.333,1.333,0,0,0,22.333,22.333Z" transform="translate(304.666 245)" fill="#b6b7c7" fill-rule="evenodd"/>
    <path id="Path_35058" data-name="Path 35058" d="M21.385,21.692H12.846a.846.846,0,0,1,0-1.692h8.538a.846.846,0,0,1,0,1.692Z" transform="translate(289.357 234.692)" fill="#b6b7c7" stroke="#b6b7c7" stroke-width="1"/>
    <path id="Path_35057" data-name="Path 35057" d="M21.385,21.692H12.846a.846.846,0,0,1,0-1.692h8.538a.846.846,0,0,1,0,1.692Z" transform="translate(292.357 238.808)" fill="#b6b7c7" stroke="#b6b7c7" stroke-width="1"/>
  </g>
</svg>
