<svg xmlns="http://www.w3.org/2000/svg" width="36.54" height="32" viewBox="0 0 36.54 32">
  <path id="Delivery_Pickup" data-name="Delivery Pickup" d="M25.882,7.612c0,3.464-4.637,9.636-6.674,12.18a1.193,1.193,0,0,1-1.878,0c-2.036-2.544-6.674-8.716-6.674-12.18a7.612,7.612,0,1,1,15.225,0Zm.507,5.1c.222-.438.425-.875.609-1.307.032-.076.063-.159.1-.235l7.359-2.943A1.521,1.521,0,0,1,36.54,9.642V26.821a1.53,1.53,0,0,1-.958,1.415L26.39,31.909ZM8.729,8.773a12.041,12.041,0,0,0,.812,2.633c.184.431.387.869.609,1.307V28.661L2.087,31.89A1.521,1.521,0,0,1,0,30.475V13.3a1.53,1.53,0,0,1,.958-1.415L8.735,8.773ZM20.795,21.061c.882-1.1,2.265-2.9,3.565-4.885V31.991L12.18,28.509V16.176c1.3,1.986,2.683,3.781,3.565,4.885A3.226,3.226,0,0,0,20.795,21.061ZM18.27,9.642A2.537,2.537,0,1,0,15.732,7.1,2.537,2.537,0,0,0,18.27,9.642Z" fill="#2196f3"/>
</svg>
