<svg xmlns="http://www.w3.org/2000/svg" width="41.321" height="32.208" viewBox="0 0 41.321 32.208">
  <path id="domain" d="M56.063,37.641A9.839,9.839,0,0,0,43.387,22.679l-.109.075a2.175,2.175,0,0,0,2.531,3.538l.109-.075a5.484,5.484,0,0,1,7.063,8.342l-7.634,7.648A5.484,5.484,0,0,1,37,35.144l.075-.109A2.175,2.175,0,0,0,33.541,32.5l-.075.109A9.833,9.833,0,0,0,48.422,45.282ZM20.708,36.049A9.839,9.839,0,0,0,33.385,51.012l.109-.075A2.175,2.175,0,0,0,30.962,47.4l-.109.075a5.486,5.486,0,0,1-7.063-8.349l7.634-7.641a5.486,5.486,0,0,1,8.342,7.07l-.075.109a2.175,2.175,0,0,0,3.538,2.531l.075-.109A9.836,9.836,0,0,0,28.349,28.408Z" transform="translate(-17.725 -20.742)" fill="#4cc9f0" stroke="#b2b3c5" stroke-width="0.2"/>
</svg>
