<svg xmlns="http://www.w3.org/2000/svg" width="28" height="28" viewBox="0 0 28 28">
  <g id="earning" transform="translate(14791 18268)">
    <circle id="Ellipse_1082" data-name="Ellipse 1082" cx="14" cy="14" r="14" transform="translate(-14791 -18268)" fill="#8688a3" opacity="0.2"/>
    <path id="sack-dollar-solid" d="M10,3H6L4.519.777A.5.5,0,0,1,4.934,0h6.131a.5.5,0,0,1,.416.777ZM6,4h4c.119.078.253.166.378.263C12.178,5.4,16,7.841,16,13a3,3,0,0,1-3,3H3a3,3,0,0,1-3-3C0,7.841,3.822,5.4,5.594,4.263c.153-.1.288-.184.406-.263ZM8.628,7a.635.635,0,0,0-.656-.628.623.623,0,0,0-.6.628v.188a2.062,2.062,0,0,0-.5.159A1.617,1.617,0,0,0,5.9,8.525a1.489,1.489,0,0,0,.106.906,1.547,1.547,0,0,0,.541.609,4.453,4.453,0,0,0,1.206.5l.069.019a3.36,3.36,0,0,1,.916.366.289.289,0,0,1,.116.128.328.328,0,0,1,.009.206.352.352,0,0,1-.25.275,1.708,1.708,0,0,1-.9.059A6.936,6.936,0,0,1,6.9,11.35c-.069-.025-.137-.047-.2-.069a.625.625,0,0,0-.791.4.585.585,0,0,0,.4.762.311.311,0,0,0,.137.075,8.352,8.352,0,0,0,.931.284V13a.623.623,0,0,0,.6.628A.635.635,0,0,0,8.628,13v-.172c.166-.031.328-.106.478-.144a1.631,1.631,0,0,0,.9-2.131,1.538,1.538,0,0,0-.528-.637,4.243,4.243,0,0,0-1.262-.544l-.053-.006a3.87,3.87,0,0,1-.906-.359A.306.306,0,0,1,7.141,8.9a.236.236,0,0,1-.006-.156c.012-.062.059-.166.256-.253a1.833,1.833,0,0,1,.894-.109c.137.05.559.131.681.163a.624.624,0,0,0,.319-1.206c-.138-.037-.45-.1-.656-.137Z" transform="translate(-14785 -18262)" fill="#8688a3"/>
  </g>
</svg>
