<svg xmlns="http://www.w3.org/2000/svg" width="24" height="24" viewBox="0 0 24 24">
  <path id="earth" d="M2.7,9.047l.441.769a3,3,0,0,0,1.781,1.4l2.714.773A1.873,1.873,0,0,1,9,13.791v1.87a1.356,1.356,0,0,0,.75,1.214,1.356,1.356,0,0,1,.75,1.214v1.828a1.1,1.1,0,0,0,1.4,1.059,2.209,2.209,0,0,0,1.533-1.584l.131-.525a2.992,2.992,0,0,1,1.42-1.875l.38-.216A2.247,2.247,0,0,0,16.5,14.822v-.389a2.25,2.25,0,0,0-.661-1.589l-.183-.183A2.25,2.25,0,0,0,14.067,12h-2.02a3.028,3.028,0,0,1-1.491-.394l-1.617-.923a.973.973,0,0,1-.431-.525.943.943,0,0,1,.478-1.148l.277-.141a1.3,1.3,0,0,1,1-.07l1.087.361a.894.894,0,0,0,.97-1.42l-.638-.764A1.5,1.5,0,0,1,11.7,5.039l.736-.858a1.5,1.5,0,0,0,.164-1.72l-.112-.2c-.164-.009-.323-.014-.488-.014A9.753,9.753,0,0,0,2.7,9.047ZM21.75,12a9.732,9.732,0,0,0-1.238-4.758l-1.2.483a1.5,1.5,0,0,0-.867,1.866l.792,2.377a1.5,1.5,0,0,0,1.059.98l1.364.342A9.761,9.761,0,0,0,21.745,12ZM0,12A12,12,0,1,1,12,24,12,12,0,0,1,0,12Z" fill="#b2b3c5"/>
</svg>
