<svg xmlns="http://www.w3.org/2000/svg" width="85.999" height="67.394" viewBox="0 0 85.999 67.394">
  <path id="happy" d="M21.8,67.036a6,6,0,0,1,7.036-9.729c.779.553,18,12.471,36.185.015A6,6,0,1,1,71.8,67.228a42.314,42.314,0,0,1-24.286,7.815A47.226,47.226,0,0,1,21.8,67.036ZM66.691,34.8,56.965,20.9A8.4,8.4,0,0,1,59.038,9.2l.014-.032a8.4,8.4,0,0,1,11.7,2.073l2.407,3.443L76.6,12.277a8.4,8.4,0,1,1,9.626,13.772l-13.92,9.734a3.987,3.987,0,0,1-2.3.729A4.049,4.049,0,0,1,66.691,34.8Zm-45.358.986L7.412,26.049a8.4,8.4,0,0,1,9.626-13.772l3.443,2.407,2.407-3.443a8.4,8.4,0,0,1,11.7-2.073L34.6,9.2a8.4,8.4,0,0,1,2.073,11.7L26.951,34.8a4.049,4.049,0,0,1-3.314,1.715A3.987,3.987,0,0,1,21.333,35.783Z" transform="translate(-3.821 -7.649)" fill="#1bfcb6"/>
</svg>
