<svg xmlns="http://www.w3.org/2000/svg" xmlns:xlink="http://www.w3.org/1999/xlink" width="16.029" height="20" viewBox="0 0 16.029 20">
  <defs>
    <linearGradient id="linear-gradient" x1="0.5" x2="0.5" y2="1" gradientUnits="objectBoundingBox">
      <stop offset="0" stop-color="#ff008b"/>
      <stop offset="1" stop-color="#f7931e"/>
    </linearGradient>
  </defs>
  <g id="hot" transform="translate(-3.999 -2)">
    <path id="Subtraction_3" data-name="Subtraction 3" d="M7.256,20a7.932,7.932,0,0,1-5.151-2.628A8.273,8.273,0,0,1,0,11.841a8.411,8.411,0,0,1,.266-2.1L.589,8.494A9.092,9.092,0,0,0,2.226,9.563a2.352,2.352,0,0,0,.9.314.244.244,0,0,0,.186-.064c.135-1.567.277-2.882.422-3.91a6.709,6.709,0,0,1,1.9-4.038A7.56,7.56,0,0,1,9.9,0l-.25.942a9.108,9.108,0,0,0-.271,4.487,2.6,2.6,0,0,0,1.314,1.857,1.812,1.812,0,0,0,.45.061c.911,0,1.467-.861,1.652-2.558l.6.815.318.432c1.3,1.755,2.323,3.141,2.323,5.805a8.23,8.23,0,0,1-4.73,7.475,2.818,2.818,0,0,0,.571-2.475,12.085,12.085,0,0,0-3.4-4.8c-2.23,1.151-3,4.089-2.46,6.264A2.8,2.8,0,0,0,7.257,20Z" transform="translate(3.999 2)" fill="url(#linear-gradient)"/>
  </g>
</svg>
