<svg xmlns="http://www.w3.org/2000/svg" width="24" height="31.998" viewBox="0 0 24 31.998">
  <path id="invoice" d="M.875.153a1.5,1.5,0,0,1,1.6.225L5,2.541,7.525.378a1.5,1.5,0,0,1,1.95,0L12,2.541,14.525.378a1.5,1.5,0,0,1,1.95,0L19,2.541,21.525.378A1.5,1.5,0,0,1,24,1.516v29a1.5,1.5,0,0,1-2.475,1.137L19,29.491l-2.525,2.163a1.5,1.5,0,0,1-1.95,0L12,29.491,9.475,31.653a1.5,1.5,0,0,1-1.95,0L5,29.491,2.475,31.653A1.5,1.5,0,0,1,0,30.516v-29A1.5,1.5,0,0,1,.875.153ZM6,9.016a1,1,0,0,0,0,2H18a1,1,0,0,0,0-2Zm-1,13a1,1,0,0,0,1,1H18a1,1,0,0,0,0-2H6A1,1,0,0,0,5,22.016Zm1-7a1,1,0,0,0,0,2H18a1,1,0,0,0,0-2Z" transform="translate(0 -0.017)" fill="#8dc73f"/>
</svg>
