<svg xmlns="http://www.w3.org/2000/svg" width="21.5" height="21.506" viewBox="0 0 21.5 21.506">
  <g id="link" transform="translate(-15.289 -15.293)">
    <path id="Union_31" data-name="Union 31" d="M1.58,18.428a5.392,5.392,0,0,1,0-7.627L4.446,7.94A.736.736,0,0,1,5.484,8.974L2.619,11.839a3.922,3.922,0,0,0,5.547,5.547l2.866-2.867-.01,0a.737.737,0,0,1,1.043,1.043L9.208,18.425a5.395,5.395,0,0,1-7.628,0ZM5.706,14.3a.736.736,0,0,1,0-1.042l8.108-8.11a.738.738,0,0,1,1.042,1.044L6.749,14.3a.737.737,0,0,1-1.043,0Zm9.121-1.987a.737.737,0,0,1-.306-1.283l2.867-2.865A3.921,3.921,0,0,0,11.85,2.62L8.984,5.487A.737.737,0,1,1,7.941,4.445L10.8,1.579A5.391,5.391,0,0,1,18.426,9.2l-2.865,2.866a.733.733,0,0,1-.567.268A.741.741,0,0,1,14.827,12.313Z" transform="translate(16.039 16.043)" fill="#8688a3" stroke="#8688a3" stroke-width="1.5"/>
  </g>
</svg>
