<svg xmlns="http://www.w3.org/2000/svg" width="30.857" height="24" viewBox="0 0 30.857 24">
  <g id="mada" transform="translate(-25.919 -76.947)">
    <g id="Group_8295" data-name="Group 8295" transform="translate(25.919 76.947)">
      <g id="Path_35106" data-name="Path 35106" transform="translate(-26.001 -77.111)" fill="#fff">
        <path d="M56.858,79.682V98.539a2.572,2.572,0,0,1-2.571,2.572H28.572A2.572,2.572,0,0,1,26,98.539V79.682a2.572,2.572,0,0,1,2.571-2.571H54.286A2.572,2.572,0,0,1,56.858,79.682Z" stroke="none"/>
        <path d="M 28.57239151000977 78.11099243164062 C 27.7059211730957 78.11099243164062 27.00100326538086 78.81594848632812 27.00100326538086 79.68245697021484 L 27.00100326538086 98.53928375244141 C 27.00100326538086 99.40584564208984 27.7059211730957 100.11083984375 28.57239151000977 100.11083984375 L 54.28646087646484 100.11083984375 C 55.15293121337891 100.11083984375 55.85786437988281 99.40584564208984 55.85786437988281 98.53928375244141 L 55.85786437988281 79.68245697021484 C 55.85786437988281 78.81594848632812 55.15293121337891 78.11099243164062 54.28646087646484 78.11099243164062 L 28.57239151000977 78.11099243164062 M 28.57239151000977 77.11099243164062 L 54.28646087646484 77.11099243164062 C 55.70609283447266 77.11099243164062 56.85786437988281 78.26283264160156 56.85786437988281 79.68245697021484 L 56.85786437988281 98.53928375244141 C 56.85786437988281 99.95905303955078 55.70609283447266 101.11083984375 54.28646087646484 101.11083984375 L 28.57239151000977 101.11083984375 C 27.15277099609375 101.11083984375 26.00100326538086 99.95905303955078 26.00100326538086 98.53928375244141 L 26.00100326538086 79.68245697021484 C 26.00100326538086 78.26276397705078 27.15277099609375 77.11099243164062 28.57239151000977 77.11099243164062 Z" stroke="none" fill="rgba(134,136,163,0.2)"/>
      </g>
    </g>
    <g id="Group_8303" data-name="Group 8303" transform="translate(32.919 81.447)">
      <rect id="Rectangle_19284" data-name="Rectangle 19284" width="17" height="6" transform="translate(0)" fill="#259bd6"/>
      <rect id="Rectangle_19285" data-name="Rectangle 19285" width="17" height="6" transform="translate(0 9)" fill="#84b740"/>
    </g>
  </g>
</svg>
