<svg id="mastercard" xmlns="http://www.w3.org/2000/svg" width="31.765" height="24" viewBox="0 0 31.765 24">
  <path id="Path_35076" data-name="Path 35076" d="M59.482,110h-25.2A3.282,3.282,0,0,1,31,106.718V89.282A3.282,3.282,0,0,1,34.282,86h25.2a3.282,3.282,0,0,1,3.282,3.282v17.435A3.282,3.282,0,0,1,59.482,110Z" transform="translate(-31 -86)" fill="#0353a5"/>
  <g id="Group_8288" data-name="Group 8288" transform="translate(3.882 5.294)">
    <g id="Group_8285" data-name="Group 8285" transform="translate(12 0)">
      <path id="Path_35077" data-name="Path 35077" d="M261.294,161A6.706,6.706,0,1,1,256,171.822a6.706,6.706,0,0,0,0-8.232A6.692,6.692,0,0,1,261.294,161Z" transform="translate(-256 -161)" fill="#f79f1a"/>
    </g>
    <g id="Group_8286" data-name="Group 8286" transform="translate(10.588 2.59)">
      <path id="Path_35078" data-name="Path 35078" d="M237.412,197.69a6.706,6.706,0,0,1,0,8.232,6.706,6.706,0,0,1,0-8.232Z" transform="translate(-236 -197.69)" fill="#ff5f01"/>
    </g>
    <g id="Group_8287" data-name="Group 8287" transform="translate(0 0)">
      <path id="Path_35079" data-name="Path 35079" d="M92.706,161A6.692,6.692,0,0,1,98,163.59a6.706,6.706,0,0,0,0,8.232A6.706,6.706,0,1,1,92.706,161Z" transform="translate(-86 -161)" fill="#ea001b"/>
    </g>
  </g>
  <path id="Path_35080" data-name="Path 35080" d="M254.271,253.889v.259h.045v-.259h.107v-.045h-.259v.045Z" transform="translate(-238.411 -241.996)"/>
  <path id="Path_35092" data-name="Path 35092" d="M253.942,253.844h-.079l-.09.2-.09-.2H253.6v.3h.045v-.231l.09.2h.062l.079-.2v.231h.062Z" transform="translate(-237.891 -241.996)"/>
</svg>
