<svg xmlns="http://www.w3.org/2000/svg" width="24" height="27.789" viewBox="0 0 24 27.789">
  <g id="notificationS" transform="translate(-3.045 -1)">
    <g id="Group_7966" data-name="Group 7966" transform="translate(3.045 1)">
      <path id="Path_16980" data-name="Path 16980" d="M25.049,22.789H5.041a1.994,1.994,0,0,1-1.76-1,1.939,1.939,0,0,1,.093-2L4.393,18.25a14.416,14.416,0,0,0,2.5-8.171,8.041,8.041,0,0,1,5.465-7.535,3.109,3.109,0,0,1,5.373,0A8.041,8.041,0,0,1,23.2,10.079a14.416,14.416,0,0,0,2.5,8.171l1.019,1.543a1.939,1.939,0,0,1,.093,2A1.892,1.892,0,0,1,25.049,22.789Z" transform="translate(-3.045 -1)" fill="#fb8500"/>
    </g>
    <path id="Path_16981" data-name="Path 16981" d="M11.1,27a5,5,0,0,0,9.8,0Z" transform="translate(-0.955 -2.211)" fill="#fb8500"/>
  </g>
</svg>
