<svg xmlns="http://www.w3.org/2000/svg" width="29.091" height="32" viewBox="0 0 29.091 32">
  <g id="orders" transform="translate(100.38 -1)">
    <path id="Path_16992" data-name="Path 16992" d="M-71.318,7.982a.878.878,0,0,0-.087-.276,1.739,1.739,0,0,0-.116-.233c-.058-.087-.131-.16-.189-.233l-4.233-5.658A1.474,1.474,0,0,0-77.107,1H-94.562a1.454,1.454,0,0,0-1.164.582L-99.958,7.24a1.468,1.468,0,0,0-.189.233,1.737,1.737,0,0,0-.116.233.877.877,0,0,0-.087.276,1.789,1.789,0,0,0-.029.291V28.636A4.367,4.367,0,0,0-96.016,33h20.364a4.376,4.376,0,0,0,4.364-4.364V8.273A1.789,1.789,0,0,0-71.318,7.982ZM-85.835,21.364a7.275,7.275,0,0,1-7.273-7.273,1.449,1.449,0,0,1,1.455-1.455A1.459,1.459,0,0,1-90.2,14.091a4.367,4.367,0,0,0,4.364,4.364,4.376,4.376,0,0,0,4.364-4.364,1.45,1.45,0,0,1,1.455-1.455,1.459,1.459,0,0,1,1.455,1.455A7.285,7.285,0,0,1-85.835,21.364ZM-96.016,6.818l2.182-2.909h16l2.182,2.909Z" transform="translate(0)" fill="#ff5d8f"/>
  </g>
</svg>
