<svg xmlns="http://www.w3.org/2000/svg" width="32" height="32" viewBox="0 0 32 32">
  <path id="Payment" d="M20,6H12L9.037,1.555A1,1,0,0,1,9.869,0H22.131a1,1,0,0,1,.831,1.555ZM12,8h8c.238.156.506.331.756.525C24.356,10.794,32,15.681,32,26a6,6,0,0,1-6,6H6a6,6,0,0,1-6-6C0,15.681,7.644,10.794,11.188,8.525c.306-.194.575-.369.813-.525Zm5.256,6a1.27,1.27,0,0,0-1.312-1.256A1.246,1.246,0,0,0,14.744,14v.375a4.125,4.125,0,0,0-.994.319,3.235,3.235,0,0,0-1.944,2.356,2.978,2.978,0,0,0,.212,1.813A3.093,3.093,0,0,0,13.1,20.081a8.906,8.906,0,0,0,2.412,1l.138.038a6.72,6.72,0,0,1,1.831.731.579.579,0,0,1,.231.256.656.656,0,0,1,.019.413.7.7,0,0,1-.5.55,3.417,3.417,0,0,1-1.8.119,13.873,13.873,0,0,1-1.638-.487c-.137-.05-.275-.094-.4-.138a1.25,1.25,0,0,0-1.581.794,1.169,1.169,0,0,0,.794,1.525.623.623,0,0,0,.275.15,16.7,16.7,0,0,0,1.863.569V26a1.246,1.246,0,0,0,1.2,1.256A1.27,1.27,0,0,0,17.256,26v-.344c.331-.062.656-.212.956-.287a3.263,3.263,0,0,0,1.794-4.263,3.075,3.075,0,0,0-1.056-1.275,8.486,8.486,0,0,0-2.525-1.087l-.106-.013a7.741,7.741,0,0,1-1.812-.719.611.611,0,0,1-.225-.219.471.471,0,0,1-.012-.312c.025-.125.119-.331.512-.506a3.666,3.666,0,0,1,1.788-.219c.275.1,1.119.263,1.363.325a1.248,1.248,0,0,0,.637-2.413c-.275-.075-.9-.2-1.312-.275Z" fill="#02c39a"/>
</svg>
