<svg xmlns="http://www.w3.org/2000/svg" width="22.667" height="21" viewBox="0 0 22.667 21">
  <g id="pickup" transform="translate(-2.5 -4.5)">
    <path id="Path_17169" data-name="Path 17169" d="M20.833,26.667H7.5a2.5,2.5,0,0,1-2.5-2.5V15.833a.833.833,0,1,1,1.667,0v8.333A.833.833,0,0,0,7.5,25H20.833a.833.833,0,0,0,.833-.833V15.833a.833.833,0,1,1,1.667,0v8.333A2.5,2.5,0,0,1,20.833,26.667Z" transform="translate(-0.333 -1.667)" fill="#b6b7c7" stroke="#b6b7c7" stroke-width="1"/>
    <path id="Path_17170" data-name="Path 17170" d="M14,27.333H9.833A.833.833,0,0,1,9,26.5v-5A2.5,2.5,0,0,1,11.5,19h.833a2.5,2.5,0,0,1,2.5,2.5v5A.833.833,0,0,1,14,27.333Zm-3.333-1.667h2.5V21.5a.833.833,0,0,0-.833-.833H11.5a.833.833,0,0,0-.833.833Z" transform="translate(-1 -2.333)" fill="#b6b7c7" stroke="#b6b7c7" stroke-width="1"/>
    <path id="Path_17171" data-name="Path 17171" d="M21.333,15A3.333,3.333,0,0,1,18,11.667a.833.833,0,1,1,1.667,0,1.667,1.667,0,0,0,3.333,0v-.633L20.817,6.667H6.85L4.667,11.033v.633a1.667,1.667,0,0,0,3.333,0,.833.833,0,1,1,1.667,0,3.333,3.333,0,1,1-6.667,0v-.833a.833.833,0,0,1,.092-.375l2.5-5A.833.833,0,0,1,6.333,5h15a.833.833,0,0,1,.742.458l2.5,5a.833.833,0,0,1,.092.375v.833A3.333,3.333,0,0,1,21.333,15Z" transform="translate(0)" fill="#b6b7c7" stroke="#b6b7c7" stroke-width="1"/>
    <path id="Path_17172" data-name="Path 17172" d="M12.333,16.167A3.333,3.333,0,0,1,9,12.833a.833.833,0,0,1,1.667,0,1.667,1.667,0,1,0,3.333,0,.833.833,0,0,1,1.667,0A3.333,3.333,0,0,1,12.333,16.167Z" transform="translate(-1 -1.167)" fill="#b6b7c7" stroke="#b6b7c7" stroke-width="1"/>
    <path id="Path_17173" data-name="Path 17173" d="M18.333,16.167A3.333,3.333,0,0,1,15,12.833a.833.833,0,0,1,1.667,0,1.667,1.667,0,1,0,3.333,0,.833.833,0,0,1,1.667,0A3.333,3.333,0,0,1,18.333,16.167Z" transform="translate(-2 -1.167)" fill="#b6b7c7" stroke="#b6b7c7" stroke-width="1"/>
    <path id="Path_17174" data-name="Path 17174" d="M21.333,21.667h-2.5a.833.833,0,0,1,0-1.667h2.5a.833.833,0,1,1,0,1.667Z" transform="translate(-2.5 -2.5)" fill="#b6b7c7" stroke="#b6b7c7" stroke-width="1"/>
  </g>
</svg>
