<svg xmlns="http://www.w3.org/2000/svg" width="19.241" height="20" viewBox="0 0 19.241 20">
  <g id="search" transform="translate(8252.691 2170.444)">
    <g id="Path_11990" data-name="Path 11990" transform="translate(-8252.691 -2170.444)">
      <path id="Path_17010" data-name="Path 17010" d="M-8233.843-2152.788l-3.784-3.875a8.6,8.6,0,0,0,1.738-5.207,8.538,8.538,0,0,0-8.41-8.572,8.523,8.523,0,0,0-8.393,8.559,8.535,8.535,0,0,0,8.41,8.565,8.238,8.238,0,0,0,4.672-1.449l3.857,3.945a1.357,1.357,0,0,0,.929.38h.017a1.308,1.308,0,0,0,.964-.421A1.375,1.375,0,0,0-8233.843-2152.788Zm-10.456-14.9a5.785,5.785,0,0,1,5.679,5.807v.014a5.764,5.764,0,0,1-5.661,5.8,5.77,5.77,0,0,1-5.683-5.813A5.779,5.779,0,0,1-8244.3-2167.692Z" transform="translate(8252.691 2170.443)" fill="#8688a3" fill-rule="evenodd"/>
    </g>
  </g>
</svg>
