<svg xmlns="http://www.w3.org/2000/svg" width="30.161" height="32" viewBox="0 0 30.161 32">
  <path id="Settings" d="M44.777,10.412a1.419,1.419,0,0,1-.394,1.537l-2.706,2.463a11.914,11.914,0,0,1,0,3.175l2.706,2.462a1.419,1.419,0,0,1,.394,1.538,15.866,15.866,0,0,1-.981,2.144l-.294.506a16.468,16.468,0,0,1-1.381,1.956,1.43,1.43,0,0,1-1.531.425l-3.481-1.112a13.674,13.674,0,0,1-2.75,1.594l-.781,3.569a1.5,1.5,0,0,1-1.137,1.112A16.331,16.331,0,0,1,29.727,32a15.985,15.985,0,0,1-2.6-.219,1.5,1.5,0,0,1-1.138-1.112L25.208,27.1a12.284,12.284,0,0,1-2.75-1.594l-3.479,1.112a1.427,1.427,0,0,1-1.532-.425,16.4,16.4,0,0,1-1.382-1.956l-.292-.506a15.588,15.588,0,0,1-.986-2.144,1.42,1.42,0,0,1,.4-1.538l2.7-2.462a12.125,12.125,0,0,1,0-3.175l-2.7-2.463a1.417,1.417,0,0,1-.4-1.537,15.663,15.663,0,0,1,.986-2.144l.292-.506a16.191,16.191,0,0,1,1.383-1.953,1.42,1.42,0,0,1,1.532-.426l3.479,1.11A12.02,12.02,0,0,1,25.208,4.9l.781-3.569A1.418,1.418,0,0,1,27.127.219a16.191,16.191,0,0,1,5.313,0,1.418,1.418,0,0,1,1.137,1.114L34.358,4.9a13.346,13.346,0,0,1,2.75,1.592l3.481-1.11a1.422,1.422,0,0,1,1.531.426A16.182,16.182,0,0,1,43.5,7.762l.294.506a15.866,15.866,0,0,1,.981,2.144ZM29.783,21a5.028,5.028,0,1,0-5-5.056A5.011,5.011,0,0,0,29.783,21Z" transform="translate(-14.702)" fill="#8688a3"/>
</svg>
