<svg xmlns="http://www.w3.org/2000/svg" width="24" height="23" viewBox="0 0 24 23">
  <g id="shopping-cart" transform="translate(-473.66 -1578.57)">
    <g id="Ellipse_649" data-name="Ellipse 649">
      <circle id="Ellipse_1086" data-name="Ellipse 1086" cx="2" cy="2" r="2" transform="translate(480.66 1597.57)" fill="#b2b3c5"/>
    </g>
    <g id="Ellipse_650" data-name="Ellipse 650">
      <circle id="Ellipse_1087" data-name="Ellipse 1087" cx="2" cy="2" r="2" transform="translate(491.66 1597.57)" fill="#b2b3c5"/>
    </g>
    <g id="Group_8367" data-name="Group 8367">
      <path id="Path_35165" data-name="Path 35165" d="M497.64,1584.76l-1.6,8.39a3.015,3.015,0,0,1-3,2.42h-9.76a2.983,2.983,0,0,1-2.92-2.41l-1.68-8.39-.84-4.2h-3.18a1,1,0,0,1,0-2h4a1,1,0,0,1,.98.81l.84,4.19h16.18a1,1,0,0,1,.98,1.19Z" fill="#b2b3c5"/>
    </g>
  </g>
</svg>
