<svg xmlns="http://www.w3.org/2000/svg" width="26.358" height="21" viewBox="0 0 26.358 21">
  <path id="sort" d="M14.407,51.536a1.428,1.428,0,0,1-2.107,0L8.371,47.25a1.428,1.428,0,0,1,2.107-1.929L11.924,46.9V33.429a1.429,1.429,0,0,1,2.857,0V46.9l1.446-1.58a1.428,1.428,0,0,1,2.107,1.929l-3.929,4.286Zm7.518-2.25a1.429,1.429,0,1,1,0-2.857H26.21a1.429,1.429,0,0,1,0,2.857Zm0-5.714a1.429,1.429,0,1,1,0-2.857h7.143a1.429,1.429,0,0,1,0,2.857Zm0-5.714a1.429,1.429,0,1,1,0-2.857h10a1.429,1.429,0,0,1,0,2.857Z" transform="translate(-7.495 -31.5)" fill="#8688a3" stroke="#8688a3" stroke-width="1"/>
</svg>
