<svg xmlns="http://www.w3.org/2000/svg" width="24" height="19.2" viewBox="0 0 24 19.2">
  <path id="staff" d="M8.4,9.6A4.8,4.8,0,1,0,3.6,4.8,4.8,4.8,0,0,0,8.4,9.6Zm1.9,1.8H6.5A6.5,6.5,0,0,0,0,17.9a1.3,1.3,0,0,0,1.3,1.3H15.5a1.3,1.3,0,0,0,1.3-1.3A6.5,6.5,0,0,0,10.3,11.4Zm7.665.6H15.2A7.6,7.6,0,0,1,18,17.9a2.477,2.477,0,0,1-.375,1.3H22.8A1.209,1.209,0,0,0,24,17.966,6,6,0,0,0,17.966,12ZM16.2,9.6a4.2,4.2,0,1,0-2.5-7.556A5.944,5.944,0,0,1,14.4,4.8a5.95,5.95,0,0,1-1.185,3.552A4.186,4.186,0,0,0,16.2,9.6Z" fill="#02c39a"/>
</svg>
