<svg xmlns="http://www.w3.org/2000/svg" width="24" height="24" viewBox="0 0 24 24">
  <g id="tax" transform="translate(-0.5 -0.5)">
    <path id="Path_35212" data-name="Path 35212" d="M12.5.5a12,12,0,1,0,12,12A12.01,12.01,0,0,0,12.5.5ZM6.454,8.776A2.323,2.323,0,1,1,8.776,11.1,2.319,2.319,0,0,1,6.454,8.776ZM9.6,18.949a1.156,1.156,0,0,1-.968.519,1.138,1.138,0,0,1-.643-.194,1.161,1.161,0,0,1-.325-1.61L15.4,6.051a1.162,1.162,0,0,1,1.935,1.285Zm6.627-.4a2.323,2.323,0,1,1,2.323-2.323A2.324,2.324,0,0,1,16.224,18.546Z" fill="#efca08"/>
  </g>
</svg>
