<svg id="visa" xmlns="http://www.w3.org/2000/svg" width="30.857" height="24" viewBox="0 0 30.857 24">
  <g id="Group_8295" data-name="Group 8295" transform="translate(0 0)">
    <path id="Path_35106" data-name="Path 35106" d="M56.858,79.682V98.539a2.572,2.572,0,0,1-2.571,2.572H28.572A2.572,2.572,0,0,1,26,98.539V79.682a2.572,2.572,0,0,1,2.571-2.571H54.286A2.572,2.572,0,0,1,56.858,79.682Z" transform="translate(-26.001 -77.111)" fill="#0353a5"/>
    <g id="Group_8294" data-name="Group 8294" transform="translate(1.714 7.559)">
      <path id="Path_35107" data-name="Path 35107" d="M338.494,192.111h-1.666a1.06,1.06,0,0,0-1.125.691l-3.2,7.634h2.261s.37-1.029.45-1.248h2.764c.064.295.257,1.248.257,1.248h1.993Zm-2.657,5.373c.177-.477.857-2.33.857-2.33-.011.016.177-.488.284-.8l.15.718s.407,1.993.5,2.411h-1.789Z" transform="translate(-313.659 -191.956)" fill="#fff"/>
      <path id="Path_35108" data-name="Path 35108" d="M59.12,192.111l-2.105,5.679-.23-1.152-.75-3.825a.9.9,0,0,0-.975-.7H51.594l-.038.166a8.5,8.5,0,0,1,2.261.916l1.918,7.232h2.277l3.386-8.314H59.12Z" transform="translate(-51.556 -191.956)" fill="#fff"/>
      <path id="Path_35109" data-name="Path 35109" d="M192.5,192.111l-1.345,8.325H193.3l1.35-8.325Z" transform="translate(-181.788 -191.956)" fill="#fff"/>
      <path id="Path_35110" data-name="Path 35110" d="M247.567,193.287c-.755-.38-1.216-.637-1.216-1.029.011-.354.391-.718,1.237-.718a3.692,3.692,0,0,1,1.6.316l.193.091.295-1.8a5.348,5.348,0,0,0-1.929-.354c-2.127,0-3.621,1.136-3.632,2.754-.016,1.195,1.071,1.859,1.886,2.261.83.407,1.114.675,1.114,1.034-.011.557-.675.814-1.291.814a4.293,4.293,0,0,1-2.019-.445l-.284-.134-.3,1.87a6.573,6.573,0,0,0,2.4.445c2.261.005,3.734-1.114,3.75-2.839C249.383,194.6,248.8,193.882,247.567,193.287Z" transform="translate(-230.365 -189.794)" fill="#fff"/>
    </g>
  </g>
</svg>
