<svg xmlns="http://www.w3.org/2000/svg" width="28" height="28" viewBox="0 0 28 28">
  <g id="VisitorsN" transform="translate(15450 18268)">
    <circle id="Ellipse_1078" data-name="Ellipse 1078" cx="14" cy="14" r="14" transform="translate(-15450 -18268)" fill="#8688a3" opacity="0.2"/>
    <g id="Group_8353" data-name="Group 8353" transform="translate(-15428 -18249.076) rotate(180)">
      <path id="Union_12" data-name="Union 12" d="M3.086,8.421A9.989,9.989,0,0,1,.055,5.138a.305.305,0,0,1,0-.347A10.006,10.006,0,0,1,3.377,1.314,8.464,8.464,0,0,1,6.983.057c.28-.032.564-.04.807-.056a8.716,8.716,0,0,1,4.364,1.042,9.519,9.519,0,0,1,3.065,2.672c.28.371.513.77.759,1.16a.193.193,0,0,1,0,.175,9.8,9.8,0,0,1-3.566,3.686A8.341,8.341,0,0,1,8.621,9.9q-.321.02-.635.02A8.511,8.511,0,0,1,3.086,8.421Zm1.3-3.566A3.378,3.378,0,0,0,7.838,8.148a3.459,3.459,0,0,0,3.769-3.064A3.379,3.379,0,0,0,8.1,1.777l-.109,0A3.435,3.435,0,0,0,4.387,4.855ZM8,6.578A1.616,1.616,0,1,1,9.612,4.983,1.612,1.612,0,0,1,8,6.578Z" transform="translate(0 0)" fill="#8688a3" stroke="rgba(0,0,0,0)" stroke-width="1"/>
    </g>
  </g>
</svg>
