<svg xmlns="http://www.w3.org/2000/svg" width="24" height="28.051" viewBox="0 0 24 28.051">
  <g id="webInfo" transform="translate(-515.85 -2004.6)">
    <g id="noun-web-password-4560790">
      <g id="Group_8382" data-name="Group 8382">
        <path id="Path_35196" data-name="Path 35196" d="M539.85,2011.95v13.33a3.331,3.331,0,0,1-3.31,3.33h-.35l-.87-1.03.87-.74a1.542,1.542,0,0,0,.53-1.38,1.508,1.508,0,0,0-.89-1.19l-5.87-2.69-.93-.42a1.482,1.482,0,0,0-.65-.13,1.551,1.551,0,0,0-.31.03,1.491,1.491,0,0,0-.67.32,1.556,1.556,0,0,0-.5,1.57l1.49,5.66h-9.22a3.34,3.34,0,0,1-3.32-3.33v-13.33Z" fill="#ff5d8f"/>
        <path id="Path_35194" data-name="Path 35194" d="M536.54,2004.6H519.18a3.327,3.327,0,0,0-3.33,3.32v3.03h24v-3.03A3.316,3.316,0,0,0,536.54,2004.6Zm-17.68,4.18h-.01a1,1,0,0,1,.01-2,1,1,0,1,1,0,2Zm3.3,0a1,1,0,1,1,1-1A1,1,0,0,1,522.16,2008.78Zm3.5,0a1,1,0,1,1,1-1A1,1,0,0,1,525.66,2008.78Z" fill="#ff5d8f"/>
      </g>
    </g>
    <g id="Group_8383" data-name="Group 8383">
      <path id="Path_35197" data-name="Path 35197" d="M536.9,2031.84l-.8.68a.533.533,0,0,1-.76-.06l-3.06-3.63-1.64,1.38a.611.611,0,0,1-.23.11.534.534,0,0,1-.28-.01.522.522,0,0,1-.35-.37l-.35-1.33-1.56-5.91a.522.522,0,0,1,.17-.55.442.442,0,0,1,.24-.11.474.474,0,0,1,.33.03l6.81,3.11a.543.543,0,0,1,.31.42.527.527,0,0,1-.19.48l-1.63,1.38.97,1.15,2.09,2.48A.528.528,0,0,1,536.9,2031.84Z" fill="#ff5d8f"/>
    </g>
  </g>
</svg>
